<svg width="301" height="300" viewBox="0 0 301 300" fill="none" xmlns="http://www.w3.org/2000/svg">
<path d="M28.2989 63.1419C28.9032 62.2916 29.517 61.4469 30.1402 60.6079L125.686 2.08599C126.717 1.91205 127.748 1.74911 128.78 1.59714L28.2989 63.1419Z" fill="white"/>
<path d="M15.336 85.144C15.6579 84.4728 15.9848 83.8038 16.3168 83.137L152.036 0.00877494C152.781 0.01597 153.526 0.0286983 154.27 0.046959L15.336 85.144Z" fill="white"/>
<path d="M7.88718 103.769C8.07844 103.18 8.27335 102.591 8.4719 102.004L172.408 1.59337C173.021 1.68321 173.634 1.77682 174.245 1.87419L7.88718 103.769Z" fill="white"/>
<path d="M3.49437 120.522C3.60279 119.984 3.71414 119.447 3.82841 118.911L189.578 5.13886C190.108 5.28076 190.637 5.42554 191.165 5.57321L3.49437 120.522Z" fill="white"/>
<path d="M1.20184 135.988C1.24958 135.488 1.29982 134.989 1.35256 134.49L204.581 10.012C205.05 10.1919 205.517 10.3741 205.984 10.5587L1.20184 135.988Z" fill="white"/>
<path d="M0.520898 150.468C0.520278 149.998 0.521872 149.528 0.525666 149.058L217.935 15.8952C218.355 16.1052 218.774 16.3172 219.192 16.5312L0.520898 150.468Z" fill="white"/>
<path d="M1.16448 164.136C1.12308 163.691 1.0837 163.247 1.04631 162.802L229.941 22.6037C230.32 22.839 230.698 23.0761 231.075 23.315L1.16448 164.136Z" fill="white"/>
<path d="M2.94964 177.105C2.87243 176.682 2.79709 176.26 2.7236 175.837L240.79 30.0206C241.134 30.2782 241.476 30.5373 241.817 30.798L2.94964 177.105Z" fill="white"/>
<path d="M5.75385 189.449C5.64422 189.047 5.53634 188.644 5.4302 188.241L250.611 38.0681C250.921 38.3457 251.231 38.6248 251.54 38.9053L5.75385 189.449Z" fill="white"/>
<path d="M9.49283 201.222C9.35313 200.838 9.21508 200.454 9.07869 200.069L259.489 46.6924C259.77 46.9886 260.049 47.2862 260.328 47.585L9.49283 201.222Z" fill="white"/>
<path d="M14.1082 212.457C13.94 212.091 13.7735 211.724 13.6085 211.357L267.486 55.8565C267.738 56.1703 267.989 56.4853 268.239 56.8016L14.1082 212.457Z" fill="white"/>
<path d="M19.5602 223.18C19.3646 222.83 19.1706 222.481 18.9781 222.13L274.643 65.5351C274.868 65.8657 275.092 66.1975 275.314 66.5305L19.5602 223.18Z" fill="white"/>
<path d="M25.8236 233.406C25.6016 233.074 25.3807 232.74 25.161 232.406L280.987 75.7117C281.185 76.0595 281.382 76.4077 281.577 76.7565L25.8236 233.406Z" fill="white"/>
<path d="M32.8985 243.135C32.6492 242.819 32.401 242.503 32.1538 242.185L286.521 86.3844C286.692 86.749 286.862 87.114 287.029 87.4795L32.8985 243.135Z" fill="white"/>
<path d="M40.8099 252.351C40.5323 252.053 40.2557 251.754 39.9801 251.453L291.222 97.5677C291.364 97.9497 291.505 98.3321 291.645 98.7149L40.8099 252.351Z" fill="white"/>
<path d="M49.5978 261.031C49.2902 260.752 48.9836 260.471 48.6781 260.188L295.051 109.285C295.163 109.685 295.274 110.086 295.384 110.487L49.5978 261.031Z" fill="white"/>
<path d="M59.3204 269.138C58.9806 268.879 58.6418 268.618 58.3039 268.355L297.952 121.57C298.032 121.991 298.111 122.411 298.188 122.832L59.3204 269.138Z" fill="white"/>
<path d="M70.0621 276.621C69.6867 276.384 69.3124 276.144 68.9389 275.903L299.843 134.474C299.889 134.916 299.932 135.358 299.973 135.801L70.0621 276.621Z" fill="white"/>
<path d="M81.9453 283.405C81.5296 283.192 81.1149 282.978 80.701 282.761L300.608 148.068C300.613 148.535 300.616 149.002 300.617 149.469L81.9453 283.405Z" fill="white"/>
<path d="M95.1531 289.378C94.6898 289.195 94.2273 289.009 93.7657 288.821L300.07 162.459C300.028 162.956 299.983 163.452 299.936 163.948L95.1531 289.378Z" fill="white"/>
<path d="M109.972 294.363C109.45 294.217 108.928 294.068 108.406 293.916L297.957 177.817C297.855 178.35 297.75 178.883 297.643 179.415L109.972 294.363Z" fill="white"/>
<path d="M126.892 298.062C126.289 297.966 125.686 297.867 125.084 297.763L293.805 194.421C293.624 195.005 293.439 195.587 293.25 196.168L126.892 298.062Z" fill="white"/>
<path d="M146.868 299.889C146.14 299.872 145.412 299.848 144.685 299.82L286.731 212.817C286.426 213.477 286.116 214.136 285.802 214.792L146.868 299.889Z" fill="white"/>
<path d="M172.357 298.339C171.372 298.484 170.386 298.619 169.4 298.745L274.544 234.344C273.984 235.166 273.416 235.983 272.839 236.794L172.357 298.339Z" fill="white"/>
<path d="M244.5 266.808C239.587 270.745 234.371 274.418 228.861 277.793C223.352 281.168 217.71 284.145 211.97 286.733L244.5 266.808Z" fill="white"/>
</svg>
